<mxfile host="app.diagrams.net" modified="2023-11-24T09:20:01.030Z" agent="Mozilla/5.0 (Windows NT 10.0; Win64; x64) AppleWebKit/537.36 (KHTML, like Gecko) Chrome/119.0.0.0 Safari/537.36" etag="5AJreNF_1oqWHCNdXmzH" version="22.1.3" type="github">
  <diagram name="Page-1" id="RQnVXbHp5YSP1koaIOIu">
    <mxGraphModel dx="1050" dy="522" grid="1" gridSize="10" guides="1" tooltips="1" connect="1" arrows="1" fold="1" page="1" pageScale="1" pageWidth="850" pageHeight="1100" math="0" shadow="0">
      <root>
        <mxCell id="0" />
        <mxCell id="1" parent="0" />
        <mxCell id="ZzrmVgCEYVlJgWrsbbt4-7" style="edgeStyle=orthogonalEdgeStyle;rounded=0;orthogonalLoop=1;jettySize=auto;html=1;entryX=0.5;entryY=0;entryDx=0;entryDy=0;" edge="1" parent="1" target="ZzrmVgCEYVlJgWrsbbt4-4">
          <mxGeometry relative="1" as="geometry">
            <mxPoint x="70" y="250" as="sourcePoint" />
          </mxGeometry>
        </mxCell>
        <mxCell id="ZzrmVgCEYVlJgWrsbbt4-1" value="Empty basket" style="ellipse;whiteSpace=wrap;html=1;" vertex="1" parent="1">
          <mxGeometry x="20" y="260" width="90" height="80" as="geometry" />
        </mxCell>
        <mxCell id="ZzrmVgCEYVlJgWrsbbt4-2" value="Payment" style="ellipse;whiteSpace=wrap;html=1;" vertex="1" parent="1">
          <mxGeometry x="630" y="260" width="90" height="80" as="geometry" />
        </mxCell>
        <mxCell id="ZzrmVgCEYVlJgWrsbbt4-17" style="edgeStyle=orthogonalEdgeStyle;rounded=0;orthogonalLoop=1;jettySize=auto;html=1;exitX=0.5;exitY=1;exitDx=0;exitDy=0;entryX=1;entryY=1;entryDx=0;entryDy=0;" edge="1" parent="1" source="ZzrmVgCEYVlJgWrsbbt4-3" target="ZzrmVgCEYVlJgWrsbbt4-4">
          <mxGeometry relative="1" as="geometry" />
        </mxCell>
        <mxCell id="ZzrmVgCEYVlJgWrsbbt4-3" value="Summary" style="ellipse;whiteSpace=wrap;html=1;" vertex="1" parent="1">
          <mxGeometry x="440" y="260" width="90" height="80" as="geometry" />
        </mxCell>
        <mxCell id="ZzrmVgCEYVlJgWrsbbt4-15" style="edgeStyle=orthogonalEdgeStyle;rounded=0;orthogonalLoop=1;jettySize=auto;html=1;exitX=1;exitY=0.5;exitDx=0;exitDy=0;entryX=0.5;entryY=0;entryDx=0;entryDy=0;" edge="1" parent="1" source="ZzrmVgCEYVlJgWrsbbt4-4" target="ZzrmVgCEYVlJgWrsbbt4-3">
          <mxGeometry relative="1" as="geometry" />
        </mxCell>
        <mxCell id="ZzrmVgCEYVlJgWrsbbt4-4" value="Basket with items" style="ellipse;whiteSpace=wrap;html=1;" vertex="1" parent="1">
          <mxGeometry x="230" y="260" width="90" height="80" as="geometry" />
        </mxCell>
        <mxCell id="ZzrmVgCEYVlJgWrsbbt4-9" style="edgeStyle=orthogonalEdgeStyle;rounded=0;orthogonalLoop=1;jettySize=auto;html=1;entryX=0.431;entryY=1.005;entryDx=0;entryDy=0;entryPerimeter=0;exitX=0.5;exitY=1;exitDx=0;exitDy=0;" edge="1" parent="1" source="ZzrmVgCEYVlJgWrsbbt4-4" target="ZzrmVgCEYVlJgWrsbbt4-1">
          <mxGeometry relative="1" as="geometry" />
        </mxCell>
        <mxCell id="ZzrmVgCEYVlJgWrsbbt4-11" style="edgeStyle=orthogonalEdgeStyle;rounded=0;orthogonalLoop=1;jettySize=auto;html=1;exitX=1;exitY=0.5;exitDx=0;exitDy=0;entryX=0.773;entryY=0.945;entryDx=0;entryDy=0;entryPerimeter=0;" edge="1" parent="1" source="ZzrmVgCEYVlJgWrsbbt4-4" target="ZzrmVgCEYVlJgWrsbbt4-4">
          <mxGeometry relative="1" as="geometry" />
        </mxCell>
        <mxCell id="ZzrmVgCEYVlJgWrsbbt4-12" value="Add Items" style="text;html=1;strokeColor=none;fillColor=none;align=center;verticalAlign=middle;whiteSpace=wrap;rounded=0;" vertex="1" parent="1">
          <mxGeometry x="160" y="200" width="60" height="30" as="geometry" />
        </mxCell>
        <mxCell id="ZzrmVgCEYVlJgWrsbbt4-13" value="Add more Items" style="text;html=1;strokeColor=none;fillColor=none;align=center;verticalAlign=middle;whiteSpace=wrap;rounded=0;" vertex="1" parent="1">
          <mxGeometry x="290" y="360" width="60" height="30" as="geometry" />
        </mxCell>
        <mxCell id="ZzrmVgCEYVlJgWrsbbt4-14" value="Remove all Items" style="text;html=1;strokeColor=none;fillColor=none;align=center;verticalAlign=middle;whiteSpace=wrap;rounded=0;" vertex="1" parent="1">
          <mxGeometry x="150" y="370" width="60" height="30" as="geometry" />
        </mxCell>
        <mxCell id="ZzrmVgCEYVlJgWrsbbt4-16" value="Checkout" style="text;html=1;strokeColor=none;fillColor=none;align=center;verticalAlign=middle;whiteSpace=wrap;rounded=0;" vertex="1" parent="1">
          <mxGeometry x="420" y="200" width="60" height="30" as="geometry" />
        </mxCell>
        <mxCell id="ZzrmVgCEYVlJgWrsbbt4-18" value="Changes with the items, not OK with the summary" style="text;html=1;strokeColor=none;fillColor=none;align=center;verticalAlign=middle;whiteSpace=wrap;rounded=0;" vertex="1" parent="1">
          <mxGeometry x="420" y="390" width="60" height="30" as="geometry" />
        </mxCell>
        <mxCell id="ZzrmVgCEYVlJgWrsbbt4-20" style="edgeStyle=orthogonalEdgeStyle;rounded=0;orthogonalLoop=1;jettySize=auto;html=1;entryX=0.667;entryY=0;entryDx=0;entryDy=0;entryPerimeter=0;exitX=0.5;exitY=0;exitDx=0;exitDy=0;" edge="1" parent="1" source="ZzrmVgCEYVlJgWrsbbt4-3" target="ZzrmVgCEYVlJgWrsbbt4-2">
          <mxGeometry relative="1" as="geometry">
            <Array as="points">
              <mxPoint x="510" y="260" />
              <mxPoint x="510" y="240" />
              <mxPoint x="690" y="240" />
            </Array>
          </mxGeometry>
        </mxCell>
        <mxCell id="ZzrmVgCEYVlJgWrsbbt4-21" value="OK" style="text;html=1;strokeColor=none;fillColor=none;align=center;verticalAlign=middle;whiteSpace=wrap;rounded=0;" vertex="1" parent="1">
          <mxGeometry x="570" y="200" width="60" height="30" as="geometry" />
        </mxCell>
      </root>
    </mxGraphModel>
  </diagram>
</mxfile>
